{
	"asset":{
		"generator":"Khronos glTF Blender I/O v3.5.30",
		"version":"2.0"
	},
	"scene":0,
	"scenes":[
		{
			"name":"Scene",
			"nodes":[
				0
			]
		}
	],
	"nodes":[
		{
			"mesh":0,
			"name":"Plane",
			"scale":[
				1,
				1,
				0.699999988079071
			]
		}
	],
	"meshes":[
		{
			"name":"Plane",
			"primitives":[
				{
					"attributes":{
						"POSITION":0,
						"TEXCOORD_0":1,
						"NORMAL":2
					},
					"indices":3
				},
				{
					"attributes":{
						"POSITION":4,
						"TEXCOORD_0":5,
						"NORMAL":6
					},
					"indices":7
				},
				{
					"attributes":{
						"POSITION":8,
						"TEXCOORD_0":9,
						"NORMAL":10
					},
					"indices":11
				},
				{
					"attributes":{
						"POSITION":12,
						"TEXCOORD_0":13,
						"NORMAL":14
					},
					"indices":15
				}
			]
		}
	],
	"accessors":[
		{
			"bufferView":0,
			"componentType":5126,
			"count":153,
			"max":[
				0.9502272605895996,
				0.29557183384895325,
				1.0035535097122192
			],
			"min":[
				-0.9502847194671631,
				9.331852197647095e-07,
				-0.9982429146766663
			],
			"type":"VEC3"
		},
		{
			"bufferView":1,
			"componentType":5126,
			"count":153,
			"type":"VEC2"
		},
		{
			"bufferView":2,
			"componentType":5126,
			"count":153,
			"type":"VEC3"
		},
		{
			"bufferView":3,
			"componentType":5123,
			"count":297,
			"type":"SCALAR"
		},
		{
			"bufferView":4,
			"componentType":5126,
			"count":4,
			"max":[
				-0.9010935425758362,
				0.27386462688446045,
				0.19118370115756989
			],
			"min":[
				-0.9139482378959656,
				0.25610610842704773,
				-0.19207414984703064
			],
			"type":"VEC3"
		},
		{
			"bufferView":5,
			"componentType":5126,
			"count":4,
			"type":"VEC2"
		},
		{
			"bufferView":6,
			"componentType":5126,
			"count":4,
			"type":"VEC3"
		},
		{
			"bufferView":7,
			"componentType":5123,
			"count":6,
			"type":"SCALAR"
		},
		{
			"bufferView":8,
			"componentType":5126,
			"count":14,
			"max":[
				0.9502272605895996,
				0.2955549657344818,
				1.0017412900924683
			],
			"min":[
				-0.9481507539749146,
				0.04777488857507706,
				-0.9967111349105835
			],
			"type":"VEC3"
		},
		{
			"bufferView":9,
			"componentType":5126,
			"count":14,
			"type":"VEC2"
		},
		{
			"bufferView":10,
			"componentType":5126,
			"count":14,
			"type":"VEC3"
		},
		{
			"bufferView":11,
			"componentType":5123,
			"count":24,
			"type":"SCALAR"
		},
		{
			"bufferView":12,
			"componentType":5126,
			"count":61,
			"max":[
				0.9481714963912964,
				0.29557183384895325,
				1.0035535097122192
			],
			"min":[
				-0.9502847194671631,
				9.331852197647095e-07,
				-0.9982429146766663
			],
			"type":"VEC3"
		},
		{
			"bufferView":13,
			"componentType":5126,
			"count":61,
			"type":"VEC2"
		},
		{
			"bufferView":14,
			"componentType":5126,
			"count":61,
			"type":"VEC3"
		},
		{
			"bufferView":15,
			"componentType":5123,
			"count":99,
			"type":"SCALAR"
		}
	],
	"bufferViews":[
		{
			"buffer":0,
			"byteLength":1836,
			"byteOffset":0,
			"target":34962
		},
		{
			"buffer":0,
			"byteLength":1224,
			"byteOffset":1836,
			"target":34962
		},
		{
			"buffer":0,
			"byteLength":1836,
			"byteOffset":3060,
			"target":34962
		},
		{
			"buffer":0,
			"byteLength":594,
			"byteOffset":4896,
			"target":34963
		},
		{
			"buffer":0,
			"byteLength":48,
			"byteOffset":5492,
			"target":34962
		},
		{
			"buffer":0,
			"byteLength":32,
			"byteOffset":5540,
			"target":34962
		},
		{
			"buffer":0,
			"byteLength":48,
			"byteOffset":5572,
			"target":34962
		},
		{
			"buffer":0,
			"byteLength":12,
			"byteOffset":5620,
			"target":34963
		},
		{
			"buffer":0,
			"byteLength":168,
			"byteOffset":5632,
			"target":34962
		},
		{
			"buffer":0,
			"byteLength":112,
			"byteOffset":5800,
			"target":34962
		},
		{
			"buffer":0,
			"byteLength":168,
			"byteOffset":5912,
			"target":34962
		},
		{
			"buffer":0,
			"byteLength":48,
			"byteOffset":6080,
			"target":34963
		},
		{
			"buffer":0,
			"byteLength":732,
			"byteOffset":6128,
			"target":34962
		},
		{
			"buffer":0,
			"byteLength":488,
			"byteOffset":6860,
			"target":34962
		},
		{
			"buffer":0,
			"byteLength":732,
			"byteOffset":7348,
			"target":34962
		},
		{
			"buffer":0,
			"byteLength":198,
			"byteOffset":8080,
			"target":34963
		}
	],
	"buffers":[
		{
			"byteLength":8280,
			"uri":"data:application/octet-stream;base64,"
		}
	]
}
