{
	"asset":{
		"generator":"Khronos glTF Blender I/O v3.6.27",
		"version":"2.0"
	},
	"scene":0,
	"scenes":[
		{
			"name":"Scene",
			"nodes":[
				0
			]
		}
	],
	"nodes":[
		{
			"mesh":0,
			"name":"voxelcapsule.002",
			"rotation":[
				0.7071068286895752,
				0,
				0,
				0.7071068286895752
			]
		}
	],
	"materials":[
		{
			"doubleSided":true,
			"name":"Material.003",
			"pbrMetallicRoughness":{
				"baseColorFactor":[
					0.8000000715255737,
					0,
					0.09369836002588272,
					1
				],
				"metallicFactor":0,
				"roughnessFactor":0.5
			}
		},
		{
			"doubleSided":true,
			"name":"Material.004",
			"pbrMetallicRoughness":{
				"baseColorFactor":[
					0.1434355229139328,
					0.1434355229139328,
					0.1434355229139328,
					1
				],
				"metallicFactor":0,
				"roughnessFactor":0.5
			}
		},
		{
			"doubleSided":true,
			"name":"Material.005",
			"pbrMetallicRoughness":{
				"baseColorFactor":[
					0.800000011920929,
					0.800000011920929,
					0.800000011920929,
					1
				],
				"metallicFactor":0,
				"roughnessFactor":0.5
			}
		},
		{
			"doubleSided":true,
			"name":"Material.006",
			"pbrMetallicRoughness":{
				"baseColorFactor":[
					0,
					0,
					0,
					1
				],
				"metallicFactor":0,
				"roughnessFactor":0.5
			}
		},
		{
			"doubleSided":true,
			"name":"Material.007",
			"pbrMetallicRoughness":{
				"baseColorFactor":[
					0.800000011920929,
					0.800000011920929,
					0.800000011920929,
					1
				],
				"metallicFactor":0,
				"roughnessFactor":0.5
			}
		},
		{
			"doubleSided":true,
			"name":"Material.009",
			"pbrMetallicRoughness":{
				"baseColorFactor":[
					0.006418169010430574,
					0.006418169010430574,
					0.006418169010430574,
					1
				],
				"metallicFactor":0,
				"roughnessFactor":0.5
			}
		}
	],
	"meshes":[
		{
			"name":"voxelcapsule.002",
			"primitives":[
				{
					"attributes":{
						"POSITION":0,
						"NORMAL":1,
						"TEXCOORD_0":2
					},
					"indices":3,
					"material":0
				},
				{
					"attributes":{
						"POSITION":4,
						"NORMAL":5,
						"TEXCOORD_0":6
					},
					"indices":7,
					"material":1
				},
				{
					"attributes":{
						"POSITION":8,
						"NORMAL":9,
						"TEXCOORD_0":10
					},
					"indices":11,
					"material":2
				},
				{
					"attributes":{
						"POSITION":12,
						"NORMAL":13,
						"TEXCOORD_0":14
					},
					"indices":15,
					"material":3
				},
				{
					"attributes":{
						"POSITION":16,
						"NORMAL":17,
						"TEXCOORD_0":18
					},
					"indices":19,
					"material":4
				},
				{
					"attributes":{
						"POSITION":20,
						"NORMAL":21,
						"TEXCOORD_0":22
					},
					"indices":23,
					"material":5
				}
			]
		}
	],
	"accessors":[
		{
			"bufferView":0,
			"componentType":5126,
			"count":341,
			"max":[
				0.699999988079071,
				0.699999988079071,
				0
			],
			"min":[
				-0.699999988079071,
				-0.699999988079071,
				-2.799999952316284
			],
			"type":"VEC3"
		},
		{
			"bufferView":1,
			"componentType":5126,
			"count":341,
			"type":"VEC3"
		},
		{
			"bufferView":2,
			"componentType":5126,
			"count":341,
			"type":"VEC2"
		},
		{
			"bufferView":3,
			"componentType":5123,
			"count":708,
			"type":"SCALAR"
		},
		{
			"bufferView":4,
			"componentType":5126,
			"count":84,
			"max":[
				0.699999988079071,
				0.800000011920929,
				-1.7000000476837158
			],
			"min":[
				-0.699999988079071,
				0.6000000238418579,
				-2.9000000953674316
			],
			"type":"VEC3"
		},
		{
			"bufferView":5,
			"componentType":5126,
			"count":84,
			"type":"VEC3"
		},
		{
			"bufferView":6,
			"componentType":5126,
			"count":84,
			"type":"VEC2"
		},
		{
			"bufferView":7,
			"componentType":5123,
			"count":144,
			"type":"SCALAR"
		},
		{
			"bufferView":8,
			"componentType":5126,
			"count":256,
			"max":[
				0.8999999761581421,
				0.800000011920929,
				-1.600000023841858
			],
			"min":[
				-0.8999999761581421,
				-0.800000011920929,
				-3.0999999046325684
			],
			"type":"VEC3"
		},
		{
			"bufferView":9,
			"componentType":5126,
			"count":256,
			"type":"VEC3"
		},
		{
			"bufferView":10,
			"componentType":5126,
			"count":256,
			"type":"VEC2"
		},
		{
			"bufferView":11,
			"componentType":5123,
			"count":528,
			"type":"SCALAR"
		},
		{
			"bufferView":12,
			"componentType":5126,
			"count":8,
			"max":[
				0.4000000059604645,
				0.6000000238418579,
				-2.200000047683716
			],
			"min":[
				-0.4000000059604645,
				0.6000000238418579,
				-2.4000000953674316
			],
			"type":"VEC3"
		},
		{
			"bufferView":13,
			"componentType":5126,
			"count":8,
			"type":"VEC3"
		},
		{
			"bufferView":14,
			"componentType":5126,
			"count":8,
			"type":"VEC2"
		},
		{
			"bufferView":15,
			"componentType":5123,
			"count":12,
			"type":"SCALAR"
		},
		{
			"bufferView":16,
			"componentType":5126,
			"count":15,
			"max":[
				0.4000000059604645,
				0.6000000238418579,
				-1.899999976158142
			],
			"min":[
				-0.4000000059604645,
				0.6000000238418579,
				-2.5
			],
			"type":"VEC3"
		},
		{
			"bufferView":17,
			"componentType":5126,
			"count":15,
			"type":"VEC3"
		},
		{
			"bufferView":18,
			"componentType":5126,
			"count":15,
			"type":"VEC2"
		},
		{
			"bufferView":19,
			"componentType":5123,
			"count":24,
			"type":"SCALAR"
		},
		{
			"bufferView":20,
			"componentType":5126,
			"count":46,
			"max":[
				0.5,
				0.6000000238418579,
				-0.30000001192092896
			],
			"min":[
				-0.5,
				0.6000000238418579,
				-1.5
			],
			"type":"VEC3"
		},
		{
			"bufferView":21,
			"componentType":5126,
			"count":46,
			"type":"VEC3"
		},
		{
			"bufferView":22,
			"componentType":5126,
			"count":46,
			"type":"VEC2"
		},
		{
			"bufferView":23,
			"componentType":5123,
			"count":90,
			"type":"SCALAR"
		}
	],
	"bufferViews":[
		{
			"buffer":0,
			"byteLength":4092,
			"byteOffset":0,
			"target":34962
		},
		{
			"buffer":0,
			"byteLength":4092,
			"byteOffset":4092,
			"target":34962
		},
		{
			"buffer":0,
			"byteLength":2728,
			"byteOffset":8184,
			"target":34962
		},
		{
			"buffer":0,
			"byteLength":1416,
			"byteOffset":10912,
			"target":34963
		},
		{
			"buffer":0,
			"byteLength":1008,
			"byteOffset":12328,
			"target":34962
		},
		{
			"buffer":0,
			"byteLength":1008,
			"byteOffset":13336,
			"target":34962
		},
		{
			"buffer":0,
			"byteLength":672,
			"byteOffset":14344,
			"target":34962
		},
		{
			"buffer":0,
			"byteLength":288,
			"byteOffset":15016,
			"target":34963
		},
		{
			"buffer":0,
			"byteLength":3072,
			"byteOffset":15304,
			"target":34962
		},
		{
			"buffer":0,
			"byteLength":3072,
			"byteOffset":18376,
			"target":34962
		},
		{
			"buffer":0,
			"byteLength":2048,
			"byteOffset":21448,
			"target":34962
		},
		{
			"buffer":0,
			"byteLength":1056,
			"byteOffset":23496,
			"target":34963
		},
		{
			"buffer":0,
			"byteLength":96,
			"byteOffset":24552,
			"target":34962
		},
		{
			"buffer":0,
			"byteLength":96,
			"byteOffset":24648,
			"target":34962
		},
		{
			"buffer":0,
			"byteLength":64,
			"byteOffset":24744,
			"target":34962
		},
		{
			"buffer":0,
			"byteLength":24,
			"byteOffset":24808,
			"target":34963
		},
		{
			"buffer":0,
			"byteLength":180,
			"byteOffset":24832,
			"target":34962
		},
		{
			"buffer":0,
			"byteLength":180,
			"byteOffset":25012,
			"target":34962
		},
		{
			"buffer":0,
			"byteLength":120,
			"byteOffset":25192,
			"target":34962
		},
		{
			"buffer":0,
			"byteLength":48,
			"byteOffset":25312,
			"target":34963
		},
		{
			"buffer":0,
			"byteLength":552,
			"byteOffset":25360,
			"target":34962
		},
		{
			"buffer":0,
			"byteLength":552,
			"byteOffset":25912,
			"target":34962
		},
		{
			"buffer":0,
			"byteLength":368,
			"byteOffset":26464,
			"target":34962
		},
		{
			"buffer":0,
			"byteLength":180,
			"byteOffset":26832,
			"target":34963
		}
	],
	"buffers":[
		{
			"byteLength":27012,
			"uri":"data:application/octet-stream;base64,"
		}
	]
}
